<?xml version="1.0" encoding="UTF-8"?>
<svg width="207px" height="66px" viewBox="0 0 207 66" version="1.1" xmlns="http://www.w3.org/2000/svg" xmlns:xlink="http://www.w3.org/1999/xlink">
    <!-- Generator: Sketch 48.2 (47327) - http://www.bohemiancoding.com/sketch -->
    <title>Group</title>
    <desc>Created with Sketch.</desc>
    <defs></defs>
    <g id="Back-Layer" stroke="none" stroke-width="1" fill="none" fill-rule="evenodd" transform="translate(-563.000000, -1233.000000)">
        <g id="Group" transform="translate(563.000000, 1233.000000)">
            <path d="M2.10883105,9.57532309 L4.94135187,61.0661701 L197.668133,63.9729091 L204.748466,2.08459566 L2.10883105,9.57532309 Z" id="Rectangle-3" stroke="#FFFFFF" stroke-width="4"></path>
            <path d="M63.6660156,39.9921875 L57.8535156,40.7421875 L57.1503906,38.09375 L54.4785156,38.09375 L53.8925781,40.7421875 L47.9160156,40.15625 L52.5800781,24.546875 L59.0957031,24.21875 L63.6660156,39.9921875 Z M56.7285156,34.5078125 L55.8378906,30.4296875 L54.9707031,34.5078125 L56.7285156,34.5078125 Z M77.5644531,29.7265625 C77.5644531,30.4843788 77.451173,31.1562471 77.2246094,31.7421875 C76.9980457,32.3281279 76.687502,32.8398416 76.2929688,33.2773438 C75.8984355,33.7148459 75.4355495,34.085936 74.9042969,34.390625 C74.3730442,34.695314 73.8046905,34.9433584 73.1992188,35.1347656 C72.593747,35.3261728 71.9668001,35.4667964 71.3183594,35.5566406 C70.6699186,35.6464848 70.0332063,35.6953125 69.4082031,35.703125 L69.4082031,41.1640625 L63.9472656,41.1640625 C63.9472656,39.3749911 63.9511718,37.5937589 63.9589844,35.8203125 C63.9667969,34.0468661 63.9785155,32.2578215 63.9941406,30.453125 C64.0097657,29.4999952 64.0136719,28.5468798 64.0058594,27.59375 C63.9980468,26.6406202 64.0175779,25.6796923 64.0644531,24.7109375 C65.0644581,24.414061 66.0644481,24.191407 67.0644531,24.0429688 C68.0644581,23.8945305 69.0956978,23.8203125 70.1582031,23.8203125 C70.7597686,23.8203125 71.3613251,23.8691401 71.9628906,23.9667969 C72.5644561,24.0644536 73.1406222,24.2187489 73.6914062,24.4296875 C74.2421903,24.6406261 74.7539039,24.9042953 75.2265625,25.2207031 C75.6992211,25.537111 76.1074202,25.9140603 76.4511719,26.3515625 C76.7949236,26.7890647 77.0664053,27.2871066 77.265625,27.8457031 C77.4648447,28.4042997 77.5644531,29.0312465 77.5644531,29.7265625 Z M72.3613281,30.125 C72.3613281,29.617185 72.2070328,29.2207046 71.8984375,28.9355469 C71.5898422,28.6503892 71.1894556,28.5078125 70.6972656,28.5078125 C70.5332023,28.5078125 70.3632821,28.5214842 70.1875,28.5488281 C70.0117179,28.576172 69.8457039,28.6093748 69.6894531,28.6484375 L69.5488281,32.0703125 C69.6582037,32.0859376 69.7636714,32.09375 69.8652344,32.09375 L70.1816406,32.09375 C70.462892,32.09375 70.7343737,32.0468755 70.9960938,31.953125 C71.2578138,31.8593745 71.4902334,31.7246103 71.6933594,31.5488281 C71.8964854,31.373046 72.0585931,31.1660168 72.1796875,30.9277344 C72.3007819,30.6894519 72.3613281,30.4218765 72.3613281,30.125 Z M91.8613281,29.7265625 C91.8613281,30.4843788 91.748048,31.1562471 91.5214844,31.7421875 C91.2949207,32.3281279 90.984377,32.8398416 90.5898438,33.2773438 C90.1953105,33.7148459 89.7324245,34.085936 89.2011719,34.390625 C88.6699192,34.695314 88.1015655,34.9433584 87.4960938,35.1347656 C86.890622,35.3261728 86.2636751,35.4667964 85.6152344,35.5566406 C84.9667936,35.6464848 84.3300813,35.6953125 83.7050781,35.703125 L83.7050781,41.1640625 L78.2441406,41.1640625 C78.2441406,39.3749911 78.2480468,37.5937589 78.2558594,35.8203125 C78.2636719,34.0468661 78.2753905,32.2578215 78.2910156,30.453125 C78.3066407,29.4999952 78.3105469,28.5468798 78.3027344,27.59375 C78.2949218,26.6406202 78.3144529,25.6796923 78.3613281,24.7109375 C79.3613331,24.414061 80.3613231,24.191407 81.3613281,24.0429688 C82.3613331,23.8945305 83.3925728,23.8203125 84.4550781,23.8203125 C85.0566436,23.8203125 85.6582001,23.8691401 86.2597656,23.9667969 C86.8613311,24.0644536 87.4374972,24.2187489 87.9882812,24.4296875 C88.5390653,24.6406261 89.0507789,24.9042953 89.5234375,25.2207031 C89.9960961,25.537111 90.4042952,25.9140603 90.7480469,26.3515625 C91.0917986,26.7890647 91.3632803,27.2871066 91.5625,27.8457031 C91.7617197,28.4042997 91.8613281,29.0312465 91.8613281,29.7265625 Z M86.6582031,30.125 C86.6582031,29.617185 86.5039078,29.2207046 86.1953125,28.9355469 C85.8867172,28.6503892 85.4863306,28.5078125 84.9941406,28.5078125 C84.8300773,28.5078125 84.6601571,28.5214842 84.484375,28.5488281 C84.3085929,28.576172 84.1425789,28.6093748 83.9863281,28.6484375 L83.8457031,32.0703125 C83.9550787,32.0859376 84.0605464,32.09375 84.1621094,32.09375 L84.4785156,32.09375 C84.759767,32.09375 85.0312487,32.0468755 85.2929688,31.953125 C85.5546888,31.8593745 85.7871084,31.7246103 85.9902344,31.5488281 C86.1933604,31.373046 86.3554681,31.1660168 86.4765625,30.9277344 C86.5976569,30.6894519 86.6582031,30.4218765 86.6582031,30.125 Z M109.193359,34.765625 C109.193359,35.8359429 109.007814,36.7714804 108.636719,37.5722656 C108.265623,38.3730509 107.757816,39.0390598 107.113281,39.5703125 C106.468747,40.1015652 105.714848,40.4999987 104.851562,40.765625 C103.988277,41.0312513 103.060552,41.1640625 102.068359,41.1640625 C101.685545,41.1640625 101.265627,41.1132818 100.808594,41.0117188 C100.35156,40.9101557 99.8886742,40.7832039 99.4199219,40.6308594 C98.9511695,40.4785149 98.5000022,40.314454 98.0664062,40.1386719 C97.6328103,39.9628897 97.2480486,39.7968758 96.9121094,39.640625 L97.4277344,34.8125 C98.0918002,35.2109395 98.828121,35.5136708 99.6367188,35.7207031 C100.445317,35.9277354 101.24023,36.03125 102.021484,36.03125 C102.169923,36.03125 102.349608,36.0253907 102.560547,36.0136719 C102.771485,36.0019531 102.972655,35.9667972 103.164062,35.9082031 C103.35547,35.8496091 103.517577,35.7617193 103.650391,35.6445312 C103.783204,35.5273432 103.849609,35.3593761 103.849609,35.140625 C103.849609,34.9921868 103.802735,34.8652349 103.708984,34.7597656 C103.615234,34.6542963 103.494141,34.5683597 103.345703,34.5019531 C103.197265,34.4355465 103.029298,34.3847658 102.841797,34.3496094 C102.654296,34.3144529 102.470704,34.2890626 102.291016,34.2734375 C102.111327,34.2578124 101.94336,34.25 101.787109,34.25 L101.412109,34.25 C100.740231,34.25 100.128909,34.1328137 99.578125,33.8984375 C99.027341,33.6640613 98.5546895,33.3378927 98.1601562,32.9199219 C97.765623,32.501951 97.4589855,32.0058622 97.2402344,31.4316406 C97.0214833,30.857419 96.9121094,30.2343784 96.9121094,29.5625 C96.9121094,28.6406204 97.0976544,27.8144568 97.46875,27.0839844 C97.8398456,26.353512 98.3359344,25.7324244 98.9570312,25.2207031 C99.5781281,24.7089818 100.291012,24.3164076 101.095703,24.0429688 C101.900395,23.7695299 102.732418,23.6328125 103.591797,23.6328125 C103.974611,23.6328125 104.369139,23.6464842 104.775391,23.6738281 C105.181643,23.701172 105.585935,23.7499996 105.988281,23.8203125 C106.390627,23.8906254 106.783201,23.9804682 107.166016,24.0898438 C107.54883,24.1992193 107.912108,24.3359367 108.255859,24.5 L107.810547,29.2578125 C107.279294,29.0781241 106.722659,28.927735 106.140625,28.8066406 C105.558591,28.6855463 104.990237,28.625 104.435547,28.625 C104.333984,28.625 104.203126,28.6269531 104.042969,28.6308594 C103.882812,28.6347656 103.714845,28.6464843 103.539062,28.6660156 C103.36328,28.685547 103.185548,28.7148436 103.005859,28.7539062 C102.826171,28.7929689 102.666016,28.8457028 102.525391,28.9121094 C102.384765,28.978516 102.271485,29.0664057 102.185547,29.1757812 C102.099609,29.2851568 102.060547,29.4140618 102.068359,29.5625 C102.076172,29.7343759 102.140624,29.8730463 102.261719,29.9785156 C102.382813,30.0839849 102.539062,30.1660153 102.730469,30.2246094 C102.921876,30.2832034 103.132811,30.3242186 103.363281,30.3476562 C103.593751,30.3710939 103.822264,30.3847656 104.048828,30.3886719 C104.275392,30.3925781 104.486327,30.3925781 104.681641,30.3886719 C104.876954,30.3847656 105.037109,30.3906249 105.162109,30.40625 C105.787113,30.4453127 106.349607,30.5781239 106.849609,30.8046875 C107.349612,31.0312511 107.773436,31.3320294 108.121094,31.7070312 C108.468752,32.0820331 108.734374,32.5292943 108.917969,33.0488281 C109.101563,33.568362 109.193359,34.1406219 109.193359,34.765625 Z M122.318359,24.2421875 L122.201172,29.2109375 L118.708984,29.3515625 L117.818359,40.4609375 L112.873047,40.71875 L112.896484,29.609375 L109.404297,29.796875 L109.544922,24.265625 L122.318359,24.2421875 Z M137.447266,32.7265625 C137.447266,33.4375036 137.365235,34.1230436 137.201172,34.7832031 C137.037109,35.4433627 136.800783,36.0624971 136.492188,36.640625 C136.183592,37.2187529 135.808596,37.7480445 135.367188,38.2285156 C134.925779,38.7089868 134.42969,39.121092 133.878906,39.4648438 C133.328122,39.8085955 132.728519,40.0761709 132.080078,40.2675781 C131.431637,40.4589853 130.744144,40.5546875 130.017578,40.5546875 C129.31445,40.5546875 128.644534,40.4648446 128.007812,40.2851562 C127.371091,40.1054679 126.775393,39.8535172 126.220703,39.5292969 C125.666013,39.2050765 125.164065,38.8144554 124.714844,38.3574219 C124.265623,37.9003883 123.882814,37.3925809 123.566406,36.8339844 C123.249998,36.2753878 123.003907,35.6757845 122.828125,35.0351562 C122.652343,34.394528 122.564453,33.726566 122.564453,33.03125 C122.564453,32.3515591 122.646484,31.6855501 122.810547,31.0332031 C122.97461,30.3808561 123.210936,29.7656279 123.519531,29.1875 C123.828127,28.6093721 124.20117,28.0781274 124.638672,27.59375 C125.076174,27.1093726 125.566404,26.691408 126.109375,26.3398438 C126.652346,25.9882795 127.240231,25.7148447 127.873047,25.5195312 C128.505863,25.3242178 129.173825,25.2265625 129.876953,25.2265625 C131.009771,25.2265625 132.042964,25.402342 132.976562,25.7539062 C133.910161,26.1054705 134.707028,26.6074186 135.367188,27.2597656 C136.027347,27.9121126 136.539061,28.7011672 136.902344,29.6269531 C137.265627,30.552739 137.447266,31.5859318 137.447266,32.7265625 Z M132.244141,33.03125 C132.244141,32.6953108 132.195313,32.3691422 132.097656,32.0527344 C132,31.7363265 131.857423,31.4550794 131.669922,31.2089844 C131.482421,30.9628894 131.250001,30.7636726 130.972656,30.6113281 C130.695311,30.4589836 130.376955,30.3828125 130.017578,30.3828125 C129.650389,30.3828125 129.322267,30.4492181 129.033203,30.5820312 C128.744139,30.7148444 128.496095,30.8964832 128.289062,31.1269531 C128.08203,31.357423 127.923829,31.6269516 127.814453,31.9355469 C127.705078,32.2441422 127.650391,32.5703108 127.650391,32.9140625 C127.650391,33.2421891 127.697265,33.5703109 127.791016,33.8984375 C127.884766,34.2265641 128.02539,34.5234362 128.212891,34.7890625 C128.400392,35.0546888 128.632811,35.2695304 128.910156,35.4335938 C129.187501,35.5976571 129.509764,35.6796875 129.876953,35.6796875 C130.244142,35.6796875 130.574217,35.6074226 130.867188,35.4628906 C131.160158,35.3183587 131.408202,35.1230481 131.611328,34.8769531 C131.814454,34.6308581 131.970703,34.3476579 132.080078,34.0273438 C132.189454,33.7070296 132.244141,33.3750017 132.244141,33.03125 Z M152.001953,29.703125 C152.001953,30.312503 151.949219,30.8652319 151.84375,31.3613281 C151.738281,31.8574244 151.572267,32.3124979 151.345703,32.7265625 C151.119139,33.1406271 150.826174,33.5234357 150.466797,33.875 C150.10742,34.2265643 149.673831,34.5624984 149.166016,34.8828125 L151.955078,39.8515625 L146.681641,40.8828125 L144.876953,35.890625 L143.423828,35.9375 L143.212891,40.8125 L138.173828,40.8125 C138.212891,39.0312411 138.25,37.2578213 138.285156,35.4921875 C138.320313,33.7265537 138.361328,31.9531339 138.408203,30.171875 C138.423828,29.273433 138.439453,28.3828169 138.455078,27.5 C138.470703,26.6171831 138.501953,25.726567 138.548828,24.828125 C139.095706,24.624999 139.634763,24.4570319 140.166016,24.3242188 C140.697268,24.1914056 141.230466,24.087891 141.765625,24.0136719 C142.300784,23.9394528 142.843747,23.888672 143.394531,23.8613281 C143.945315,23.8339842 144.509763,23.8203125 145.087891,23.8203125 C145.97852,23.8203125 146.83984,23.9433581 147.671875,24.1894531 C148.50391,24.4355481 149.240231,24.804685 149.880859,25.296875 C150.521488,25.789065 151.035154,26.4023401 151.421875,27.1367188 C151.808596,27.8710974 152.001953,28.7265576 152.001953,29.703125 Z M146.751953,30.078125 C146.751953,29.7499984 146.707032,29.4492201 146.617188,29.1757812 C146.527343,28.9023424 146.394532,28.6660166 146.21875,28.4667969 C146.042968,28.2675771 145.82422,28.1113287 145.5625,27.9980469 C145.30078,27.8847651 144.994142,27.828125 144.642578,27.828125 C144.486327,27.828125 144.333985,27.8378905 144.185547,27.8574219 C144.037109,27.8769532 143.892579,27.9062498 143.751953,27.9453125 L143.564453,32.3046875 L143.845703,32.3046875 C144.181642,32.3046875 144.523436,32.2617192 144.871094,32.1757812 C145.218752,32.0898433 145.531249,31.9570321 145.808594,31.7773438 C146.085939,31.5976554 146.312499,31.3671889 146.488281,31.0859375 C146.664063,30.8046861 146.751953,30.468752 146.751953,30.078125 Z M163.908203,24.1015625 C163.861328,24.8359412 163.81836,25.5624964 163.779297,26.28125 C163.740234,27.0000036 163.689453,27.7265588 163.626953,28.4609375 L158.658203,28.71875 L158.541016,30.1953125 L162.033203,30.1953125 L161.775391,33.828125 L158.259766,33.9453125 L158.142578,35.65625 L163.111328,35.65625 C163.064453,36.5156293 163.015625,37.3691364 162.964844,38.2167969 C162.914062,39.0644574 162.869141,39.9140582 162.830078,40.765625 L152.728516,41 L153.103516,24.1015625 L163.908203,24.1015625 Z" id="APP-STORE" fill="#FFFFFF"></path>
        </g>
    </g>
</svg>