<?xml version="1.0" encoding="UTF-8"?>
<svg width="1920px" height="1285px" viewBox="0 0 1920 1285" version="1.1" xmlns="http://www.w3.org/2000/svg" xmlns:xlink="http://www.w3.org/1999/xlink" style="background: #4FCFFD;">
    <!-- Generator: Sketch 48.2 (47327) - http://www.bohemiancoding.com/sketch -->
    <title>Back Layer</title>
    <desc>Created with Sketch.</desc>
    <defs>
        <polygon id="path-1" points="0 0.207967002 100.597924 0.207967002 100.597924 138 0 138"></polygon>
    </defs>
    <g id="Page-1" stroke="none" stroke-width="1" fill="none" fill-rule="evenodd">
        <g id="Back-Layer">
            <g id="Back-Layer-Copy" transform="translate(-50.000000, 504.000000)">
                <g id="Battle-Bus" transform="translate(907.000000, 0.000000)">
                    <mask id="mask-2" fill="white">
                        <use xlink:href="#path-1"></use>
                    </mask>
                    <g id="Clip-2"></g>
                    <path d="M81.6679748,116.939427 L66.1490843,106.660344 L66.71757,85.2746563 L70.9586081,69.9772604 C71.1192462,69.7625938 71.2471795,69.5335521 71.3193224,69.2810313 C71.3948319,69.0165313 71.4078176,68.7414896 71.3789605,68.4616563 L71.8267271,66.8459063 C73.2662176,66.0720521 74.7441843,65.1175521 76.2452367,64.0111563 C76.2461986,64.0125938 76.2471605,64.0145104 76.2481224,64.0164271 C76.4361748,63.8774688 76.625189,63.7332396 76.8142033,63.5899688 C76.8598938,63.5549896 76.9055843,63.5214479 76.9512748,63.4864688 C77.31247,63.2099896 77.6746271,62.9258438 78.0372652,62.6335521 C78.0930557,62.5885104 78.1493271,62.5420313 78.2051176,62.4965104 C78.5090795,62.2497396 78.8135224,61.9972188 79.1189271,61.7399063 C79.2045367,61.6675521 79.2896652,61.5956771 79.3752748,61.5228438 C79.725889,61.2238438 80.0765033,60.9205313 80.4280795,60.6081146 C80.4766557,60.5649896 80.5252319,60.5194688 80.574289,60.4763438 C80.86767,60.2137604 81.1615319,59.9468646 81.4553938,59.6756563 C81.5934271,59.5486771 81.7314605,59.4202604 81.8694938,59.2908854 C82.0782271,59.0958646 82.2869605,58.8979688 82.4961748,58.6981563 C86.009051,55.3463854 89.5147129,51.4315938 92.8126033,47.3299271 L81.6679748,116.939427 Z M65.7590319,85.1333021 L64.3791795,90.1094479 L60.2790605,86.9407187 L60.293489,86.9043021 L55.6936605,84.0293021 L51.6945414,84.4423437 L46.7440986,84.9416354 L52.4727224,65.4879479 C53.3028462,67.5263229 56.4651081,69.7170729 60.5945652,70.8886354 C62.5626224,71.4468646 64.4681557,71.6941146 66.1168605,71.6600937 L65.7590319,85.1333021 Z M65.203051,106.034073 L61.6204367,103.66076 L65.6532224,89.1146979 L65.203051,106.034073 Z M58.991551,91.7822188 L58.5404176,91.3102396 L59.909689,87.8683854 L64.102151,91.1085104 L63.9939367,91.4990313 L58.991551,91.7822188 Z M59.3412033,99.3995313 L61.9638367,94.8929688 L59.4263319,92.2374271 L63.858789,91.9863438 L61.516551,100.435969 L61.5295367,100.26299 L59.3412033,99.3995313 Z M62.7261462,125.029677 L25.2623605,102.18301 C25.266689,102.17151 25.2705367,102.159531 25.2748652,102.147552 L26.0314033,102.606594 L62.7299938,125.015781 C62.728551,125.020094 62.727589,125.024885 62.7261462,125.029677 Z M17.3939795,97.3846354 L12.9999986,94.7051354 L17.3983081,97.3721771 C17.3968652,97.3760104 17.3954224,97.3803229 17.3939795,97.3846354 Z M29.00417,91.7184896 L29.8910462,88.4697396 L28.9286605,91.9949688 C28.9286605,91.9949688 28.9060557,91.9983229 28.87287,92.0016771 C28.9286605,91.9154271 28.9757938,91.8224688 29.00417,91.7184896 Z M50.2011843,90.0485937 L46.9480224,90.4654687 L46.6123176,93.7204479 L44.7914319,92.5143854 L46.114051,87.1486771 L50.2011843,90.0485937 Z M46.2410224,86.6503437 L46.4516795,85.9344687 L51.2794795,85.4476354 L51.4285748,89.8909479 L50.9033748,89.9585104 L46.2410224,86.6503437 Z M35.7322129,86.4682604 L51.4607986,58.2961354 C51.881151,59.2573438 52.3221843,60.1677604 52.7858224,61.0187604 L44.961689,87.5899896 L45.0117081,87.6048437 L43.9406271,91.9504062 L35.3113795,86.2353854 L35.7322129,86.4682604 Z M53.4490557,62.1721146 C53.4976319,62.2521354 53.547651,62.3297604 53.597189,62.4088229 C53.4995557,62.4658437 53.4134652,62.5295729 53.325451,62.5918646 L53.4490557,62.1721146 Z M67.08117,71.6006771 C68.1003081,71.5034062 68.9881462,71.2849062 69.6903367,70.9528437 L66.8233795,81.2927813 L67.08117,71.6006771 Z M100.595856,28.3980521 C100.589603,27.9524271 100.57277,27.5053646 100.546318,27.0563854 C100.544875,27.0276354 100.542951,26.9984062 100.541027,26.9696562 C100.513613,26.5249896 100.47658,26.0793646 100.428965,25.6327813 C100.42656,25.6078646 100.423194,25.5834271 100.420789,25.5589896 C100.270251,24.1813854 100.023522,22.7985104 99.6791605,21.4276146 C99.6709843,21.3964687 99.66377,21.3648437 99.6555938,21.3332187 C99.5459367,20.9014896 99.4256986,20.4716771 99.2963224,20.0428229 C99.2818938,19.9953854 99.2674652,19.9479479 99.2530367,19.9005104 C99.1226986,19.4774063 98.9837033,19.0562187 98.8346081,18.6374271 C98.8187367,18.5923854 98.8019033,18.5478229 98.785551,18.5027813 C98.6316462,18.0763229 98.4690843,17.6522604 98.2954605,17.2315521 C98.2863224,17.2099896 98.2767033,17.1889062 98.2680462,17.1673437 C98.0862462,16.7303437 97.8948271,16.2971771 97.6913843,15.8678437 C97.6904224,15.8659271 97.6894605,15.8640104 97.6889795,15.8620937 C97.4913081,15.4456979 97.2820938,15.0340937 97.0642224,14.6258438 C97.0406557,14.5822396 97.018051,14.5381563 96.9944843,14.4945521 C96.7843081,14.1054688 96.5640319,13.7211771 96.3355795,13.3411979 C96.300951,13.2836979 96.2663224,13.2261979 96.2312129,13.1686979 C96.0022795,12.7944688 95.764689,12.4240729 95.5169986,12.0589479 C95.4809271,12.0052813 95.4434129,11.9520937 95.4063795,11.8984271 C95.1519557,11.5280312 94.8893557,11.1619479 94.6152129,10.8020938 C94.5892414,10.7685521 94.5623081,10.7350104 94.5363367,10.7014688 C94.2525748,10.3320313 93.9596748,9.96834375 93.6552319,9.61232292 C93.6480176,9.60369792 93.6408033,9.59459375 93.633589,9.58644792 C93.330589,9.23282292 93.0155652,8.88734375 92.6923652,8.54809375 C92.6514843,8.50448958 92.6110843,8.46088542 92.5697224,8.41776042 C92.2585462,8.09480208 91.9363081,7.77951042 91.6063748,7.46996875 C91.5501033,7.41726042 91.4943129,7.36503125 91.4375605,7.31280208 C91.1081081,7.00901042 90.7695176,6.71240625 90.421789,6.42346875 C90.3631129,6.37507292 90.3039557,6.32715625 90.2452795,6.27923958 C89.887451,5.98742708 89.5219271,5.70184375 89.1453414,5.42632292 C89.1020557,5.39421875 89.0573271,5.36355208 89.0135605,5.33240625 C88.6206224,5.04826042 88.2190271,4.77130208 87.8049271,4.50584375 C87.7972319,4.50057292 87.7900176,4.49530208 87.7818414,4.49003125 C87.3672605,4.22457292 86.9396938,3.97109375 86.503951,3.72528125 C86.4491224,3.69413542 86.3947748,3.66251042 86.3394652,3.63136458 C85.9210367,3.39944792 85.4915462,3.17807292 85.0543605,2.96484375 C84.978851,2.92842708 84.9043033,2.89153125 84.8283129,2.85511458 C84.393051,2.64811458 83.94817,2.45069792 83.494151,2.26334375 C83.4162367,2.23123958 83.3373605,2.19961458 83.2584843,2.16798958 C82.7934033,1.98111458 82.3206271,1.80286458 81.8363081,1.63755208 C81.776189,1.61694792 81.7146271,1.59826042 81.6545081,1.57765625 C81.1418129,1.40659375 80.6204605,1.24415625 80.0861224,1.09801042 C79.6292176,0.97965625 79.1742367,0.878072917 78.7211795,0.784635417 C78.6331652,0.766427083 78.5456319,0.747260417 78.4576176,0.730010417 C78.0213938,0.644239583 77.5866129,0.56853125 77.1537557,0.504322917 C77.0724748,0.49234375 76.9911938,0.481802083 76.9099129,0.47078125 C76.4861938,0.411364583 76.0634367,0.360572917 75.6435652,0.321760417 C75.6147081,0.318885417 75.584889,0.315052083 75.5560319,0.31265625 C75.1188462,0.27384375 74.6855081,0.248927083 74.2536129,0.231197917 C74.1655986,0.22784375 74.0775843,0.224010417 73.98957,0.221135417 C73.5672938,0.208197917 73.1469414,0.204364583 72.7299557,0.211552083 C72.6597367,0.212510417 72.5899986,0.215385417 72.5202605,0.217302083 C72.1229938,0.226885417 71.727651,0.24509375 71.3356748,0.271927083 C71.2885414,0.27528125 71.2409271,0.277197917 71.1937938,0.280552083 C70.7787319,0.311697917 70.3670367,0.354822917 69.9577462,0.40465625 C69.8730986,0.415197917 69.788451,0.425739583 69.7042843,0.436760417 C69.2983605,0.490427083 68.8948414,0.551760417 68.49517,0.62315625 C68.4408224,0.632739583 68.3874367,0.644239583 68.333089,0.654302083 C67.9540986,0.724739583 67.5779938,0.80284375 67.2042938,0.88909375 C67.1499462,0.90203125 67.0951176,0.913052083 67.04077,0.925989583 C66.64687,1.01942708 66.2577795,1.12292708 65.8710938,1.23313542 C65.7951033,1.25469792 65.7191129,1.27673958 65.6436033,1.29926042 C65.2540319,1.41378125 64.8678271,1.53501042 64.4864319,1.66630208 C64.454689,1.67684375 64.4239081,1.68882292 64.3926462,1.69984375 C64.0242367,1.82778125 63.6596748,1.96434375 63.2984795,2.10761458 C63.243651,2.12917708 63.1888224,2.14978125 63.1344748,2.17182292 C62.7636605,2.32132292 62.3976557,2.47896875 62.0350176,2.64332292 C61.971051,2.67207292 61.9075652,2.70178125 61.8440795,2.73148958 C61.4727843,2.90303125 61.1053367,3.07984375 60.7436605,3.26623958 C60.7422176,3.26719792 60.7407748,3.26767708 60.7393319,3.26863542 C60.37477,3.45694792 60.0159795,3.65436458 59.6605557,3.85705208 C59.6114986,3.88532292 59.5614795,3.91263542 59.5124224,3.94090625 C59.1656557,4.14167708 58.8232176,4.34963542 58.48607,4.56334375 C58.4398986,4.59257292 58.3942081,4.62276042 58.3480367,4.65198958 C57.6545033,5.09761458 56.981651,5.57007292 56.3318843,6.06696875 C56.2929271,6.09667708 56.253489,6.12638542 56.2145319,6.15657292 C55.8937367,6.40430208 55.577751,6.65778125 55.2680176,6.91701042 C55.2410843,6.94001042 55.214151,6.96348958 55.1872176,6.98601042 C54.5518795,7.52219792 53.941551,8.08138542 53.3571938,8.66069792 C53.3297795,8.68801042 53.3018843,8.71532292 53.27447,8.74263542 C52.9834938,9.03348958 52.698289,9.32913542 52.4202986,9.63005208 C52.4126033,9.63771875 52.40587,9.64586458 52.3986557,9.65353125 C51.8287271,10.2716562 51.2881367,10.9089479 50.7768843,11.5625312 C50.7605319,11.5836146 50.7446605,11.6042187 50.7283081,11.6253021 C49.9583033,12.6152604 49.2575557,13.6421146 48.6323176,14.6938854 C48.6251033,14.7068229 48.6174081,14.7197604 48.6097129,14.7326979 C47.981589,15.7926146 47.4304176,16.8779271 46.96197,17.9766563 C46.9590843,17.9828854 46.9566795,17.9886354 46.9542748,17.9943854 C46.6411748,18.7299063 46.3651081,19.4711771 46.1279986,20.2148437 C46.1279986,20.2148437 46.1279986,20.2153229 46.1279986,20.2153229 C45.5349843,22.0754479 45.184851,23.9489896 45.1074176,25.7808437 L43.8545367,25.3999062 L43.6751414,32.6295729 C43.3408795,32.8159687 43.0470176,33.2328437 42.9248557,33.7656771 C42.7675843,34.4528021 42.9474605,35.0958437 43.3298176,35.3344687 L43.0826081,35.2290521 L23.0211224,81.8428646 L23.4833176,82.0402812 C22.9052129,82.0580104 22.3155652,82.1073646 21.721589,82.2003229 C12.2348033,83.6862187 14.055689,87.0260104 14.055689,87.0260104 L14.7165176,88.0868854 L30.5518748,86.0480312 L31.2377129,83.5367187 C31.2377129,83.5367187 27.9513652,82.0465104 23.983989,82.0378854 L43.9665986,35.6071146 L43.5207557,35.4164062 C43.5221986,35.4164062 43.5231605,35.4173646 43.5250843,35.4178437 C44.0382605,35.5347604 44.6024176,34.9841979 44.7842176,34.1883021 C44.9434129,33.4935104 44.7587271,32.8423229 44.3681938,32.6099271 L45.143489,27.9231979 C45.6576271,34.7283229 46.62867,41.7294271 48.12347,47.9633854 C48.122989,47.9633854 48.1225081,47.9638646 48.1220271,47.9643437 C48.13357,48.0117812 48.1465557,48.0577812 48.1580986,48.1052187 C48.3225843,48.7861146 48.4923605,49.4588646 48.6698319,50.1196354 C48.6703129,50.1215521 48.6707938,50.1229896 48.6707938,50.1249062 C49.3484557,52.6520312 50.1194224,55.0234271 50.9875414,57.1715312 L34.9102652,85.9694479 L31.2377129,83.5367187 L30.1493176,87.5229062 C30.3412176,86.8214062 29.7544557,86.1510521 29.0306224,86.2440104 L15.3946605,87.9996771 C14.9887367,88.0519062 14.6554367,88.3403646 14.5433748,88.7313646 C13.289051,88.6604479 11.5523319,88.6566146 9.48904619,88.9038646 C2.25888905,89.7701979 1.4826319,93.7266771 1.4826319,93.7266771 L0.192236667,98.0037187 C0.0243842857,98.3904062 -0.000144285714,98.6400521 -0.000144285714,98.6400521 L6.01079857,102.127906 C5.96270333,102.710094 5.99156048,103.319115 6.11805095,103.938198 C6.69904143,106.78301 9.0172319,108.714531 11.2955033,108.252615 C12.2828986,108.052323 13.1000367,107.434198 13.662751,106.567385 L55.2684986,130.708281 C55.1516271,131.42751 55.1573986,132.200885 55.3185176,132.989115 C55.8995081,135.833927 58.2176986,137.765448 60.49597,137.303531 C61.6209176,137.075448 62.5246271,136.304948 63.0825319,135.242635 L67.8348224,138.00024 L82.9944414,137.389781 L70.3920462,129.704427 C70.3930081,129.701552 70.394451,129.699156 70.3954129,129.696281 L82.9944414,137.389781 C82.9944414,137.389781 85.2640557,132.147219 85.8613986,128.509865 C87.1036986,120.944302 86.5164557,120.150802 86.5164557,120.150802 L82.5485986,117.522573 L94.0322986,45.7927604 C94.8754081,44.7155937 95.705051,43.6302812 96.51257,42.5411354 C98.0698938,40.4423854 99.1900319,37.9143021 99.8599986,35.1514271 C99.8609605,35.1485521 99.8614414,35.1456771 99.8624033,35.1428021 C99.9638843,34.7240104 100.054303,34.2994687 100.135103,33.8706146 C100.137508,33.8567187 100.140394,33.8423437 100.142799,33.8284479 C100.222637,33.4000729 100.292375,32.9673854 100.351051,32.5299062 C100.352013,32.5251146 100.352494,32.5203229 100.352975,32.5155312 C100.531408,31.1868021 100.612689,29.8216562 100.595856,28.4378229 C100.595856,28.4244062 100.595856,28.4114687 100.595856,28.3980521 Z" id="Fill-1" stroke="#FFFFFF" stroke-width="4" fill="#D5D5D5" mask="url(#mask-2)"></path>
                    <path d="M58.5569836,77 L58.283756,77.1932584 C58.1320208,77.3006242 54.5597259,79.8384519 54.1180774,81.3051186 C53.6576576,82.8377029 54.5847544,84.4441948 56.1850132,84.8861423 C56.4587622,84.9615481 56.7403327,85 57.0224246,85 C58.3598843,85 59.5529087,84.1390762 59.9236432,82.9071161 C60.3652917,81.4394507 58.7499115,77.4709114 58.6810832,77.3026217 L58.5569836,77 Z" id="Fill-4" stroke="#FFFFFF" stroke-width="3" fill="#D5D5D5" mask="url(#mask-2)"></path>
                </g>
                <polygon id="Mountains" stroke="#FFFFFF" stroke-width="6" fill="#D5D5D5" points="0.253317247 266.732612 90.6608512 230.907537 119.677151 230.907537 141.070711 250.785906 191.509917 266.732612 240.555167 248.820074 254.751511 230.907537 272.27134 203.356557 330.252584 221.67253 364.323809 203.356557 395.00552 203.356557 419.113626 248.820074 485.231172 250.785906 543.836027 235.044585 581.7443 248.820074 628.66927 221.67253 724.448737 230.907537 745.842297 250.785906 770.031106 230.907537 793.068067 212.342167 844.475707 221.67253 913.645283 212.342167 978.185457 230.907537 1050.15762 266.732612 1089.4892 250.785906 1100.58215 212.342167 1100.58215 183.118763 1126.71516 171.257759 1138.53445 138 1164.52806 148.408637 1175.62102 183.118763 1225.61269 221.67253 1274.2691 221.67253 1285.48678 203.356557 1305.9706 203.356557 1333.08672 212.342167 1372.59437 235.044585 1421.15541 248.820074 1463.97187 235.044585 1506.01799 248.820074 1557.03679 250.785906 1572.94257 230.907537 1615.95712 221.67253 1640.82824 248.820074 1694.9651 266.732612 1742.49167 248.820074 1792.18988 235.044585 1815.02875 250.785906 1864.6756 250.785906 1880.52268 221.67253 1909.23818 221.67253 1936.25892 266.732612 2010.11269 280.663388 2010.11269 860.710574 0.253317247 900.190102"></polygon>
            </g>
        </g>
    </g>
</svg>