<?xml version="1.0" encoding="UTF-8"?>
<svg width="1920px" height="1285px" viewBox="0 0 1920 1285" version="1.1" xmlns="http://www.w3.org/2000/svg" xmlns:xlink="http://www.w3.org/1999/xlink">
    <!-- Generator: Sketch 48.2 (47327) - http://www.bohemiancoding.com/sketch -->
    <title>Front Layer</title>
    <desc>Created with Sketch.</desc>
    <defs>
        <linearGradient x1="64.2672181%" y1="38.278546%" x2="63.4139212%" y2="85.3636436%" id="linearGradient-1">
            <stop stop-color="#9B9B9B" offset="0%"></stop>
            <stop stop-color="#ABC50F" offset="100%"></stop>
        </linearGradient>
    </defs>
    <g id="Page-1" stroke="none" stroke-width="1" fill="none" fill-rule="evenodd">
        <g id="Front-Layer" fill="url(#linearGradient-1)" stroke="#F8F8F8" stroke-width="12">
            <path d="M-26.7154627,1004.56732 C64.5315781,1001.69021 135.191849,1012.82581 185.265349,1037.97414 C260.375599,1075.69664 326.603332,1117.77439 428.915672,1110.53872 C531.228013,1103.30305 595.10886,1057.74091 640.967208,1057.74091 C686.825556,1057.74091 862.109213,1122.61485 926.356451,1090.17788 C990.603689,1057.74091 1221.93875,1080.99325 1278.39535,1037.97414 C1294.59564,1025.62976 1306.74727,990.787676 1314.85023,933.447894 L1360.41151,880.105852 L1380.59274,820.9337 L1396.34758,742.301453 L1467.82362,722 L1482.01386,789.942063 L1513.60275,841.363831 L1535.56643,933.447894 C1562.50197,933.447894 1585.88171,938.331065 1605.70564,948.097406 C1605.70564,948.097406 1610.68988,925.433555 1620.65837,880.105852 L1651.14808,841.363831 L1677.54807,789.942063 L1709.21618,789.942063 L1722.00027,853.994086 L1743.69659,880.105852 C1743.69659,963.080162 1743.69659,1004.56732 1743.69659,1004.56732 C1774.35448,1028.44804 1897.1836,1040.17847 1944.05025,1100.85227 C1947.33801,1105.10862 1939.32126,1192.55262 1920,1363.18428 L-26.7154627,1370.86867 L-26.7154627,1004.56732 Z"></path>
        </g>
    </g>
</svg>