<?xml version="1.0" encoding="UTF-8"?>
<svg width="1920px" height="1285px" viewBox="0 0 1920 1285" version="1.1" xmlns="http://www.w3.org/2000/svg" xmlns:xlink="http://www.w3.org/1999/xlink">
    <!-- Generator: Sketch 48.2 (47327) - http://www.bohemiancoding.com/sketch -->
    <title>Middle Layer</title>
    <desc>Created with Sketch.</desc>
    <defs>
        <linearGradient x1="50%" y1="126.247008%" x2="50%" y2="29.4565506%" id="linearGradient-1">
            <stop stop-color="#CBCBCB" stop-opacity="0" offset="0%"></stop>
            <stop stop-color="#9B9B9B" offset="100%"></stop>
        </linearGradient>
    </defs>
    <g id="Page-1" stroke="none" stroke-width="1" fill="none" fill-rule="evenodd">
        <g id="Middle-Layer" fill="url(#linearGradient-1)" stroke="#FFFFFF" stroke-width="8">
            <path d="M-62.0161828,814.777482 L54.9659282,814.777482 L95.6990717,872.151542 L172.712775,883.032026 L221.444572,883.032026 L261.044573,908.417599 L273.275847,930.718258 L357.515001,938.93359 L515.255116,900.775275 L538.217917,854.348327 L581.937225,854.348327 L603.166985,623.459542 L651.185569,623.459542 L661.590484,564 L706.896191,571.05599 L719.134131,669.480055 L756.741134,669.480055 L756.741134,716.320102 L787.902555,737.701285 L804.473099,836.40519 L847.212572,872.151542 L906.189311,862.983419 L953.581334,836.40519 L1006.01917,862.983419 L1016.68405,908.417599 L1059.1169,930.718258 L1118.5669,900.775275 L1137.31041,836.40519 L1179.17669,793.016515 L1266.0754,781.87618 L1279.7531,793.016515 L1290.99224,836.40519 L1289.87339,869.175416 C1343.2827,887.649396 1369.9431,898.182682 1369.85458,900.775275 C1369.8378,901.266712 1381.94588,890.674954 1406.17881,869 L1493.09975,854.348327 L1531.78395,814.777482 L1574.48415,831.071397 L1603.80811,895.243616 L1668.11672,938.93359 L1721.93685,938.93359 L1784.67575,922.874997 L1832.68077,908.417599 L1863.87344,908.417599 L1882.49982,930.718258 L1985.93164,883.032026 L1985.93164,1521.5711 C1800.60527,1443.05946 1673.23076,1386.30591 1603.80811,1351.31044 C1534.38547,1316.31498 1414.81472,1346.32011 1245.09586,1441.32583 L-62.0161828,1441.32583 L-62.0161828,814.777482 Z" id="Middle-Layer-Copy"></path>
        </g>
    </g>
</svg>