<?xml version="1.0" encoding="UTF-8"?>
<svg width="207px" height="66px" viewBox="0 0 207 66" version="1.1" xmlns="http://www.w3.org/2000/svg" xmlns:xlink="http://www.w3.org/1999/xlink">
    <!-- Generator: Sketch 48.2 (47327) - http://www.bohemiancoding.com/sketch -->
    <title>Group 2</title>
    <desc>Created with Sketch.</desc>
    <defs></defs>
    <g id="Back-Layer" stroke="none" stroke-width="1" fill="none" fill-rule="evenodd" transform="translate(-857.000000, -1233.000000)">
        <g id="Group-2" transform="translate(857.000000, 1233.000000)">
            <path d="M2.10883105,9.57532309 L4.94135187,61.0661701 L197.668133,63.9729091 L204.748466,2.08459566 L2.10883105,9.57532309 Z" id="Rectangle-3" stroke="#FFFFFF" stroke-width="4" transform="translate(103.500000, 33.000000) rotate(-180.000000) translate(-103.500000, -33.000000) "></path>
            <path d="M56.9804688,29.7265625 C56.9804688,30.4843788 56.8671886,31.1562471 56.640625,31.7421875 C56.4140614,32.3281279 56.1035176,32.8398416 55.7089844,33.2773438 C55.3144512,33.7148459 54.8515652,34.085936 54.3203125,34.390625 C53.7890598,34.695314 53.2207062,34.9433584 52.6152344,35.1347656 C52.0097626,35.3261728 51.3828157,35.4667964 50.734375,35.5566406 C50.0859343,35.6464848 49.4492219,35.6953125 48.8242188,35.703125 L48.8242188,41.1640625 L43.3632812,41.1640625 C43.3632812,39.3749911 43.3671875,37.5937589 43.375,35.8203125 C43.3828125,34.0468661 43.3945312,32.2578215 43.4101562,30.453125 C43.4257813,29.4999952 43.4296875,28.5468798 43.421875,27.59375 C43.4140625,26.6406202 43.4335935,25.6796923 43.4804688,24.7109375 C44.4804737,24.414061 45.4804638,24.191407 46.4804688,24.0429688 C47.4804737,23.8945305 48.5117134,23.8203125 49.5742188,23.8203125 C50.1757843,23.8203125 50.7773407,23.8691401 51.3789062,23.9667969 C51.9804718,24.0644536 52.5566379,24.2187489 53.1074219,24.4296875 C53.6582059,24.6406261 54.1699195,24.9042953 54.6425781,25.2207031 C55.1152367,25.537111 55.5234358,25.9140603 55.8671875,26.3515625 C56.2109392,26.7890647 56.4824209,27.2871066 56.6816406,27.8457031 C56.8808604,28.4042997 56.9804688,29.0312465 56.9804688,29.7265625 Z M51.7773438,30.125 C51.7773438,29.617185 51.6230484,29.2207046 51.3144531,28.9355469 C51.0058578,28.6503892 50.6054712,28.5078125 50.1132812,28.5078125 C49.9492179,28.5078125 49.7792978,28.5214842 49.6035156,28.5488281 C49.4277335,28.576172 49.2617195,28.6093748 49.1054688,28.6484375 L48.9648438,32.0703125 C49.0742193,32.0859376 49.179687,32.09375 49.28125,32.09375 L49.5976562,32.09375 C49.8789077,32.09375 50.1503893,32.0468755 50.4121094,31.953125 C50.6738294,31.8593745 50.906249,31.7246103 51.109375,31.5488281 C51.312501,31.373046 51.4746088,31.1660168 51.5957031,30.9277344 C51.7167975,30.6894519 51.7773438,30.4218765 51.7773438,30.125 Z M67.9257812,34.3203125 L67.4335938,39.5234375 L57.5664062,40.296875 C57.6132815,37.5702989 57.6660153,34.8593885 57.7246094,32.1640625 C57.7832034,29.4687365 57.8554683,26.7578261 57.9414062,24.03125 L64.0351562,24.03125 C63.8554679,25.7421961 63.6835946,27.4511633 63.5195312,29.1582031 C63.3554679,30.8652429 63.2382816,32.5859288 63.1679688,34.3203125 C63.5351581,34.3359376 63.8984357,34.34375 64.2578125,34.34375 L65.3476562,34.34375 C65.7851584,34.34375 66.2148416,34.3398438 66.6367188,34.3320312 C67.0585959,34.3242187 67.4882791,34.3203125 67.9257812,34.3203125 Z M83.2539062,39.9921875 L77.4414062,40.7421875 L76.7382812,38.09375 L74.0664062,38.09375 L73.4804688,40.7421875 L67.5039062,40.15625 L72.1679688,24.546875 L78.6835938,24.21875 L83.2539062,39.9921875 Z M76.3164062,34.5078125 L75.4257812,30.4296875 L74.5585938,34.5078125 L76.3164062,34.5078125 Z M98.5585938,25.1328125 L92.1132812,34.1328125 L91.8085938,41.46875 L86.2539062,41.46875 L86.3945312,34.1796875 L83.0429688,25.484375 L89.0195312,24.734375 L89.9570312,29.796875 L92.9335938,24.734375 L98.5585938,25.1328125 Z M114.753906,34.765625 C114.753906,35.8359429 114.568361,36.7714804 114.197266,37.5722656 C113.82617,38.3730509 113.318363,39.0390598 112.673828,39.5703125 C112.029294,40.1015652 111.275395,40.4999987 110.412109,40.765625 C109.548824,41.0312513 108.621099,41.1640625 107.628906,41.1640625 C107.246092,41.1640625 106.826174,41.1132818 106.369141,41.0117188 C105.912107,40.9101557 105.449221,40.7832039 104.980469,40.6308594 C104.511716,40.4785149 104.060549,40.314454 103.626953,40.1386719 C103.193357,39.9628897 102.808595,39.7968758 102.472656,39.640625 L102.988281,34.8125 C103.652347,35.2109395 104.388668,35.5136708 105.197266,35.7207031 C106.005863,35.9277354 106.800777,36.03125 107.582031,36.03125 C107.730469,36.03125 107.910155,36.0253907 108.121094,36.0136719 C108.332032,36.0019531 108.533202,35.9667972 108.724609,35.9082031 C108.916017,35.8496091 109.078124,35.7617193 109.210938,35.6445312 C109.343751,35.5273432 109.410156,35.3593761 109.410156,35.140625 C109.410156,34.9921868 109.363282,34.8652349 109.269531,34.7597656 C109.175781,34.6542963 109.054688,34.5683597 108.90625,34.5019531 C108.757812,34.4355465 108.589845,34.3847658 108.402344,34.3496094 C108.214843,34.3144529 108.031251,34.2890626 107.851562,34.2734375 C107.671874,34.2578124 107.503907,34.25 107.347656,34.25 L106.972656,34.25 C106.300778,34.25 105.689456,34.1328137 105.138672,33.8984375 C104.587888,33.6640613 104.115236,33.3378927 103.720703,32.9199219 C103.32617,32.501951 103.019532,32.0058622 102.800781,31.4316406 C102.58203,30.857419 102.472656,30.2343784 102.472656,29.5625 C102.472656,28.6406204 102.658201,27.8144568 103.029297,27.0839844 C103.400392,26.353512 103.896481,25.7324244 104.517578,25.2207031 C105.138675,24.7089818 105.851558,24.3164076 106.65625,24.0429688 C107.460942,23.7695299 108.292964,23.6328125 109.152344,23.6328125 C109.535158,23.6328125 109.929685,23.6464842 110.335938,23.6738281 C110.74219,23.701172 111.146482,23.7499996 111.548828,23.8203125 C111.951174,23.8906254 112.343748,23.9804682 112.726562,24.0898438 C113.109377,24.1992193 113.472655,24.3359367 113.816406,24.5 L113.371094,29.2578125 C112.839841,29.0781241 112.283206,28.927735 111.701172,28.8066406 C111.119138,28.6855463 110.550784,28.625 109.996094,28.625 C109.894531,28.625 109.763673,28.6269531 109.603516,28.6308594 C109.443359,28.6347656 109.275392,28.6464843 109.099609,28.6660156 C108.923827,28.685547 108.746095,28.7148436 108.566406,28.7539062 C108.386718,28.7929689 108.226563,28.8457028 108.085938,28.9121094 C107.945312,28.978516 107.832032,29.0664057 107.746094,29.1757812 C107.660156,29.2851568 107.621094,29.4140618 107.628906,29.5625 C107.636719,29.7343759 107.701171,29.8730463 107.822266,29.9785156 C107.94336,30.0839849 108.099608,30.1660153 108.291016,30.2246094 C108.482423,30.2832034 108.693358,30.3242186 108.923828,30.3476562 C109.154298,30.3710939 109.382811,30.3847656 109.609375,30.3886719 C109.835939,30.3925781 110.046874,30.3925781 110.242188,30.3886719 C110.437501,30.3847656 110.597656,30.3906249 110.722656,30.40625 C111.347659,30.4453127 111.910154,30.5781239 112.410156,30.8046875 C112.910159,31.0312511 113.333983,31.3320294 113.681641,31.7070312 C114.029299,32.0820331 114.294921,32.5292943 114.478516,33.0488281 C114.66211,33.568362 114.753906,34.1406219 114.753906,34.765625 Z M127.878906,24.2421875 L127.761719,29.2109375 L124.269531,29.3515625 L123.378906,40.4609375 L118.433594,40.71875 L118.457031,29.609375 L114.964844,29.796875 L115.105469,24.265625 L127.878906,24.2421875 Z M143.007812,32.7265625 C143.007812,33.4375036 142.925782,34.1230436 142.761719,34.7832031 C142.597655,35.4433627 142.36133,36.0624971 142.052734,36.640625 C141.744139,37.2187529 141.369143,37.7480445 140.927734,38.2285156 C140.486326,38.7089868 139.990237,39.121092 139.439453,39.4648438 C138.888669,39.8085955 138.289066,40.0761709 137.640625,40.2675781 C136.992184,40.4589853 136.304691,40.5546875 135.578125,40.5546875 C134.874996,40.5546875 134.205081,40.4648446 133.568359,40.2851562 C132.931637,40.1054679 132.33594,39.8535172 131.78125,39.5292969 C131.22656,39.2050765 130.724612,38.8144554 130.275391,38.3574219 C129.82617,37.9003883 129.443361,37.3925809 129.126953,36.8339844 C128.810545,36.2753878 128.564454,35.6757845 128.388672,35.0351562 C128.21289,34.394528 128.125,33.726566 128.125,33.03125 C128.125,32.3515591 128.20703,31.6855501 128.371094,31.0332031 C128.535157,30.3808561 128.771483,29.7656279 129.080078,29.1875 C129.388673,28.6093721 129.761717,28.0781274 130.199219,27.59375 C130.636721,27.1093726 131.12695,26.691408 131.669922,26.3398438 C132.212893,25.9882795 132.800778,25.7148447 133.433594,25.5195312 C134.066409,25.3242178 134.734371,25.2265625 135.4375,25.2265625 C136.570318,25.2265625 137.603511,25.402342 138.537109,25.7539062 C139.470708,26.1054705 140.267575,26.6074186 140.927734,27.2597656 C141.587894,27.9121126 142.099608,28.7011672 142.462891,29.6269531 C142.826174,30.552739 143.007812,31.5859318 143.007812,32.7265625 Z M137.804688,33.03125 C137.804688,32.6953108 137.75586,32.3691422 137.658203,32.0527344 C137.560546,31.7363265 137.41797,31.4550794 137.230469,31.2089844 C137.042968,30.9628894 136.810548,30.7636726 136.533203,30.6113281 C136.255858,30.4589836 135.937502,30.3828125 135.578125,30.3828125 C135.210936,30.3828125 134.882814,30.4492181 134.59375,30.5820312 C134.304686,30.7148444 134.056642,30.8964832 133.849609,31.1269531 C133.642577,31.357423 133.484376,31.6269516 133.375,31.9355469 C133.265624,32.2441422 133.210938,32.5703108 133.210938,32.9140625 C133.210938,33.2421891 133.257812,33.5703109 133.351562,33.8984375 C133.445313,34.2265641 133.585937,34.5234362 133.773438,34.7890625 C133.960938,35.0546888 134.193358,35.2695304 134.470703,35.4335938 C134.748048,35.5976571 135.070311,35.6796875 135.4375,35.6796875 C135.804689,35.6796875 136.134764,35.6074226 136.427734,35.4628906 C136.720705,35.3183587 136.968749,35.1230481 137.171875,34.8769531 C137.375001,34.6308581 137.531249,34.3476579 137.640625,34.0273438 C137.750001,33.7070296 137.804688,33.3750017 137.804688,33.03125 Z M157.5625,29.703125 C157.5625,30.312503 157.509766,30.8652319 157.404297,31.3613281 C157.298828,31.8574244 157.132814,32.3124979 156.90625,32.7265625 C156.679686,33.1406271 156.386721,33.5234357 156.027344,33.875 C155.667967,34.2265643 155.234378,34.5624984 154.726562,34.8828125 L157.515625,39.8515625 L152.242188,40.8828125 L150.4375,35.890625 L148.984375,35.9375 L148.773438,40.8125 L143.734375,40.8125 C143.773438,39.0312411 143.810547,37.2578213 143.845703,35.4921875 C143.88086,33.7265537 143.921875,31.9531339 143.96875,30.171875 C143.984375,29.273433 144,28.3828169 144.015625,27.5 C144.03125,26.6171831 144.0625,25.726567 144.109375,24.828125 C144.656253,24.624999 145.19531,24.4570319 145.726562,24.3242188 C146.257815,24.1914056 146.791013,24.087891 147.326172,24.0136719 C147.861331,23.9394528 148.404294,23.888672 148.955078,23.8613281 C149.505862,23.8339842 150.07031,23.8203125 150.648438,23.8203125 C151.539067,23.8203125 152.400386,23.9433581 153.232422,24.1894531 C154.064457,24.4355481 154.800778,24.804685 155.441406,25.296875 C156.082034,25.789065 156.595701,26.4023401 156.982422,27.1367188 C157.369143,27.8710974 157.5625,28.7265576 157.5625,29.703125 Z M152.3125,30.078125 C152.3125,29.7499984 152.267579,29.4492201 152.177734,29.1757812 C152.08789,28.9023424 151.955079,28.6660166 151.779297,28.4667969 C151.603515,28.2675771 151.384767,28.1113287 151.123047,27.9980469 C150.861327,27.8847651 150.554689,27.828125 150.203125,27.828125 C150.046874,27.828125 149.894532,27.8378905 149.746094,27.8574219 C149.597656,27.8769532 149.453126,27.9062498 149.3125,27.9453125 L149.125,32.3046875 L149.40625,32.3046875 C149.742189,32.3046875 150.083983,32.2617192 150.431641,32.1757812 C150.779299,32.0898433 151.091795,31.9570321 151.369141,31.7773438 C151.646486,31.5976554 151.873046,31.3671889 152.048828,31.0859375 C152.22461,30.8046861 152.3125,30.468752 152.3125,30.078125 Z M169.46875,24.1015625 C169.421875,24.8359412 169.378906,25.5624964 169.339844,26.28125 C169.300781,27.0000036 169.25,27.7265588 169.1875,28.4609375 L164.21875,28.71875 L164.101562,30.1953125 L167.59375,30.1953125 L167.335938,33.828125 L163.820312,33.9453125 L163.703125,35.65625 L168.671875,35.65625 C168.625,36.5156293 168.576172,37.3691364 168.525391,38.2167969 C168.474609,39.0644574 168.429688,39.9140582 168.390625,40.765625 L158.289062,41 L158.664062,24.1015625 L169.46875,24.1015625 Z" id="PLAY-STORE" fill="#FFFFFF"></path>
        </g>
    </g>
</svg>