<?xml version="1.0" encoding="UTF-8"?>
<svg width="294px" height="329px" viewBox="0 0 294 329" version="1.1" xmlns="http://www.w3.org/2000/svg" xmlns:xlink="http://www.w3.org/1999/xlink">
    <!-- Generator: Sketch 48.2 (47327) - http://www.bohemiancoding.com/sketch -->
    <title>Group 3</title>
    <desc>Created with Sketch.</desc>
    <defs></defs>
    <g id="Welcome" stroke="none" stroke-width="1" fill="none" fill-rule="evenodd">
        <g id="Group-3" transform="translate(2.000000, 0.000000)">
            <g id="Page-1" transform="translate(27.000000, 0.000000)" fill="#FEFEFE">
                <path d="M205.618947,0 L205.000755,36.8316053 L205,36.8677899 L205.146968,66.3292937 L239,86 L238.80728,52.8637608 L238.637437,19.1873448 L220.619023,8.7226496 L205.618947,0 Z M211.437545,62.6826418 L211.308921,36.9058108 L211.746155,10.8661823 L217.45156,14.1840403 L232.347075,22.8349688 L232.498683,52.8981091 L232.627199,74.9951281 L211.437545,62.6826418 Z" id="Fill-1"></path>
                <path d="M207.352765,119.57439 L183.512543,105.787025 L159.647667,119.574606 L138.481937,107.338718 L183.5,81.3089685 L228.518171,107.338718 L207.352765,119.57439 Z M183.5,140.655026 L201.03288,150.794673 L183.5,160.93432 L165.96712,150.794673 L183.5,140.655026 Z M180.339138,166.415748 L180.339138,190.865982 L135.321832,164.857127 L135.321832,112.820579 L156.486697,125.055927 L156.486697,152.621455 L180.339138,166.415748 Z M180.339138,114.917254 L180.339138,135.173597 L162.808421,145.311837 L162.808421,125.055602 L180.339138,114.917254 Z M186.660862,114.917254 L204.191579,125.055602 L204.191579,145.311837 L186.660862,135.173597 L186.660862,114.917254 Z M210.513303,152.621455 L210.513303,125.055927 L231.678276,112.820579 L231.678276,164.857127 L186.660862,190.865982 L186.660862,166.415748 L210.513303,152.621455 Z M129,105.511936 L129,168.512206 L183.5,200 L238,168.512206 L238,105.511936 L183.5,74 L129,105.511936 Z" id="Fill-2"></path>
                <path d="M76.6207436,207.953555 L51,222.877127 L51,262 L79.7842079,245.23233 L109,228.184479 L109,190 L76.6207436,207.953555 Z M57.3589059,226.487538 L79.7524482,213.44302 L102.640985,200.752045 L102.640985,224.577089 L76.5620098,239.794651 L57.3589059,250.980937 L57.3589059,226.487538 Z" id="Fill-3"></path>
                <path d="M0,105.512504 L0,168.511746 L54.4882654,200 L109,168.512071 L109,105.512179 L54.4881572,74 L0,105.512504 Z M9.48404941,107.337333 L54.4888062,81.3093827 L99.512706,107.336791 L78.3460719,119.552837 L54.4883735,105.781313 L30.6315404,119.552512 L9.48404941,107.337333 Z M57.6500118,166.394291 L81.5074938,152.622876 L81.5074938,125.03436 L102.676832,112.81669 L102.676832,164.857109 L57.6500118,190.865897 L57.6500118,166.394291 Z M6.32306012,164.857542 L6.32306012,112.818964 L27.4694696,125.03371 L27.4694696,149.905444 L27.6498689,152.72713 L51.3269516,166.394291 L51.3269516,190.864706 L6.32306012,164.857542 Z M57.6500118,135.173656 L57.6500118,114.91271 L75.1843255,125.034251 L75.1843255,145.311869 L57.6500118,135.173656 Z M33.7925297,125.034143 L51.3269516,114.91271 L51.3269516,135.173656 L33.7925297,145.311869 L33.7925297,125.034143 Z M36.9556821,150.792309 L54.4884817,140.654854 L72.0211732,150.792309 L54.4884817,160.912877 L36.9556821,150.792309 Z" id="Fill-4"></path>
            </g>
            <path d="M11.074,310.48 L11.074,309.04 L21.802,309.04 L21.802,309.76 C21.802,316.6 16.906,322 11.038,322 C5.098,322 0.202,316.6 0.202,309.76 C0.202,302.92 5.098,297.52 11.038,297.52 C15.106,297.484 18.886,300.04 20.29,302.776 L18.994,303.424 C17.806,301.048 14.53,298.924 11.038,298.96 C5.818,298.96 1.642,303.856 1.642,309.76 C1.642,315.664 5.818,320.56 11.038,320.56 C16.186,320.56 20.362,315.664 20.362,310.48 L11.074,310.48 Z M28.282,307.98749 C29.7290483,305.841695 32.1558375,304.72 35.05,304.72 L35.77,304.72 L35.77,306.16 L35.05,306.16 C31.1396269,306.159999 28.3174573,308.68744 28.282,313.187707 L28.282,322 L26.842,322 L26.842,313.36 C26.842,313.302568 26.8416331,313.245407 26.842,313.188518 L26.842,304.72 L28.282,304.72 L28.282,307.98749 Z M37.57,313.36 C37.57,308.536 41.17,304.72 45.49,304.72 C49.81,304.72 53.41,308.536 53.41,313.36 C53.41,318.184 49.81,322 45.49,322 C41.17,322 37.57,318.184 37.57,313.36 Z M39.01,313.36 C39.01,317.32 41.89,320.56 45.49,320.56 C49.09,320.56 51.97,317.32 51.97,313.36 C51.97,309.4 49.09,306.16 45.49,306.16 C41.89,306.16 39.01,309.4 39.01,313.36 Z M56.362,305.728 L55.93,304.72 L57.478,304.72 L57.658,305.152 L63.526,319.372 L69.286,305.152 L69.502,304.72 L71.05,304.72 L70.654,305.728 L64.21,321.568 L63.994,322 L63.058,322 L62.878,321.568 L56.362,305.728 Z M73.57,313.36 C73.57,308.536 77.17,304.72 81.49,304.72 C84.1446385,304.72 86.5273984,306.160959 87.97,308.391306 L87.97,304.72 L89.41,304.72 L89.41,322 L87.97,322 L87.97,318.328694 C86.5273984,320.559041 84.1446385,322 81.49,322 C77.17,322 73.57,318.184 73.57,313.36 Z M75.01,313.36 C75.01,317.32 77.89,320.56 81.49,320.56 C85.09,320.56 87.97,317.32 87.97,313.36 C87.97,309.4 85.09,306.16 81.49,306.16 C77.89,306.16 75.01,309.4 75.01,313.36 Z M95.17,322 L95.17,296.8 L96.61,296.8 L96.61,322 L95.17,322 Z M114.286,317.68 L115.438,318.544 C114.358,320.056 112.342,322.036 108.598,322 C104.242,322 100.678,318.184 100.678,313.36 C100.678,308.536 104.242,304.72 108.598,304.72 C112.918,304.72 116.518,308.536 116.518,313.36 L116.518,314.08 L102.149627,314.08 C102.469877,317.705287 105.185029,320.56 108.598,320.56 C111.694,320.596 113.35,318.976 114.286,317.68 Z M102.149627,312.64 L115.078,312.64 C115.078,309.4 112.198,306.16 108.598,306.16 C105.185029,306.16 102.469877,309.014713 102.149627,312.64 Z" id="Grovale" stroke="#FFFFFF" stroke-width="3" fill="#FFFFFF"></path>
            <path d="M145.478,322 L136.046,322 L136.046,297.52 L145.478,297.52 C151.094,298.024 155.306,303.46 154.766,309.76 C155.306,316.06 151.094,321.496 145.478,322 Z M137.486,320.56 L145.37,320.56 C150.23,320.128 153.794,315.268 153.326,309.76 L153.326,309.688 C153.794,304.252 150.23,299.392 145.37,298.96 L137.486,298.96 L137.486,320.56 Z M161.282,301.804 L159.806,301.804 L159.806,300.364 L161.282,300.364 L161.282,301.804 Z M159.806,322 L159.806,304.72 L161.246,304.72 L161.246,322 L159.806,322 Z M165.566,313.36 C165.566,308.536 169.166,304.72 173.486,304.72 C176.140639,304.72 178.523398,306.160959 179.966,308.391306 L179.966,304.756 L181.478,304.756 L181.442,305.476 L181.406,321.28 C181.406,324.376 178.346,328.66 173.522,328.696 L172.802,328.696 L172.802,327.256 L173.522,327.256 C177.41,327.22 179.966,323.8 179.966,321.28 L179.966,318.328694 C178.523398,320.559041 176.140639,322 173.486,322 C169.166,322 165.566,318.184 165.566,313.36 Z M167.006,313.36 C167.006,317.32 169.886,320.56 173.486,320.56 C177.086,320.56 179.966,317.32 179.966,313.36 C179.966,309.4 177.086,306.16 173.486,306.16 C169.886,306.16 167.006,309.4 167.006,313.36 Z M188.642,301.804 L187.166,301.804 L187.166,300.364 L188.642,300.364 L188.642,301.804 Z M187.166,322 L187.166,304.72 L188.606,304.72 L188.606,322 L187.166,322 Z M196.562,306.16 L196.562,317.284 C196.598,319.48 198.218,320.56 200.846,320.56 L201.566,320.56 L201.566,322 L200.846,322 C197.066,322 195.158,320.272 195.122,317.284 L195.122,306.16 L192.206,306.16 L192.206,304.72 L195.122,304.72 L195.122,300.22 L196.562,300.22 L196.562,304.72 L201.566,304.72 L201.566,306.16 L196.562,306.16 Z M203.726,313.36 C203.726,308.536 207.326,304.72 211.646,304.72 C214.300639,304.72 216.683398,306.160959 218.126,308.391306 L218.126,304.72 L219.566,304.72 L219.566,322 L218.126,322 L218.126,318.328694 C216.683398,320.559041 214.300639,322 211.646,322 C207.326,322 203.726,318.184 203.726,313.36 Z M205.166,313.36 C205.166,317.32 208.046,320.56 211.646,320.56 C215.246,320.56 218.126,317.32 218.126,313.36 C218.126,309.4 215.246,306.16 211.646,306.16 C208.046,306.16 205.166,309.4 205.166,313.36 Z M225.326,322 L225.326,296.8 L226.766,296.8 L226.766,322 L225.326,322 Z M248.474,322 L248.474,297.52 L249.914,297.52 L249.914,320.56 L262.874,320.56 L262.874,322 L248.474,322 Z M268.67,306.16 L268.67,317.284 C268.706,319.48 270.326,320.56 272.954,320.56 L273.674,320.56 L273.674,322 L272.954,322 C269.174,322 267.266,320.272 267.23,317.284 L267.23,306.16 L264.314,306.16 L264.314,304.72 L267.23,304.72 L267.23,300.22 L268.67,300.22 L268.67,304.72 L273.674,304.72 L273.674,306.16 L268.67,306.16 Z M275.834,313.36 C275.834,308.536 279.434,304.72 283.754,304.72 C286.408639,304.72 288.791398,306.160959 290.234,308.391306 L290.234,296.8 L291.674,296.8 L291.674,322 L290.234,322 L290.234,318.328694 C288.791398,320.559041 286.408639,322 283.754,322 C279.434,322 275.834,318.184 275.834,313.36 Z M277.274,313.36 C277.274,317.32 280.154,320.56 283.754,320.56 C287.354,320.56 290.234,317.32 290.234,313.36 C290.234,309.4 287.354,306.16 283.754,306.16 C280.154,306.16 277.274,309.4 277.274,313.36 Z" id="Digital-Ltd" fill="#FFFFFF"></path>
        </g>
    </g>
</svg>