
<svg width="1440px" height="470px" viewBox="0 0 1440 470" version="1.1" xmlns="http://www.w3.org/2000/svg" xmlns:xlink="http://www.w3.org/1999/xlink">
    <!-- Generator: Sketch 48.2 (47327) - http://www.bohemiancoding.com/sketch -->
    <desc>Created with Sketch.</desc>
    <defs></defs>
    <g id="Welcome" stroke="none" stroke-width="1" fill="none" fill-rule="evenodd">
        <g id="Desktop-HD" transform="translate(0.000000, -113.000000)">
            <g id="Background" transform="translate(-12.000000, 113.000000)">
                <polygon id="Fill-1" fill="#584D89" points="726 469 286 469 353.265753 429"></polygon>
                <polygon id="Fill-3" fill="#E93831" points="235.919726 415 285 470 114 470"></polygon>
                <polygon id="Fill-5" fill="#40BDA9" points="476 0 429.112533 51 363 0"></polygon>
                <polygon id="Fill-7" fill="#40BDA9" points="0 332 115 470 0 470"></polygon>
                <polygon id="Fill-9" fill="#F26F26" points="726 232.99245 688.446319 415 608 136"></polygon>
                <polygon id="Fill-11" fill="#E93831" points="0 0 172 271.852992 114.596319 470"></polygon>
                <polygon id="Fill-13" fill="#EA4A48" points="726 0 688.486441 28 476 0"></polygon>
                <polygon id="Fill-15" fill="#EA4A48" points="445 346.406424 353.54029 430 237 332"></polygon>
                <polygon id="Fill-17" fill="#EA4A48" points="0 0 115 470 0 332.144186"></polygon>
                <polygon id="Fill-19" fill="#EA4A48" points="726 233 726 470 688 415.386563"></polygon>
                <polygon id="Fill-21" fill="#40BDA9" points="726 0 726 233 688 27.7840145"></polygon>
                <polygon id="Fill-23" fill="#584D89" points="688.446319 28 726 233 608 135.978708"></polygon>
                <polygon id="Fill-25" fill="#E93831" points="688.452701 415 726 470 353 429.456102"></polygon>
                <polygon id="Fill-27" fill="#E93831" points="688 28 607.754531 136 429 50.9428492"></polygon>
                <polygon id="Fill-29" fill="#EA4A48" points="607.754531 135.011574 688 414 429 50"></polygon>
                <polygon id="Fill-31" fill="#E93831" points="429 50 688 414 444.615822 345.208333"></polygon>
                <polygon id="Fill-33" fill="#F26F26" points="688 27.9228029 429 51 475.817379 0"></polygon>
                <polygon id="Fill-35" fill="#F26F26" points="688 414.695873 353 429 444.377326 346"></polygon>
                <polygon id="Fill-37" fill="#584D89" points="429.352623 50 445 346 172 271.290928"></polygon>
                <polygon id="Fill-39" fill="#E93831" points="445 346 236.971287 331.581583 172 271"></polygon>
                <polygon id="Fill-41" fill="#EA4A48" points="429 50 172 271 189.221649 87.3054268"></polygon>
                <polygon id="Fill-43" fill="#F26F26" points="429 50.715948 189.090162 88 0 0"></polygon>
                <polygon id="Fill-45" fill="#E93831" points="429 51 0 0 362.90731 0"></polygon>
                <polygon id="Fill-47" fill="#E93831" points="353 429.456102 286.028453 470 237 415"></polygon>
                <polygon id="Fill-49" fill="#40BDA9" points="353 430 237 415.593576 237 332"></polygon>
                <polygon id="Fill-51" fill="#F26F26" points="236 332 236 415.349224 114 470"></polygon>
                <polygon id="Fill-53" fill="#584D89" points="236 331.246463 114 469 171.227889 271"></polygon>
                <polygon id="Fill-55" fill="#40BDA9" points="189 88.1330672 171.777123 272 0 0"></polygon>
                <g id="Page-1" transform="translate(1089.000000, 235.000000) scale(-1, 1) translate(-1089.000000, -235.000000) translate(726.000000, 0.000000)">
                    <polygon id="Fill-1" fill="#584D89" points="726 469 286 469 353.265753 429"></polygon>
                    <polygon id="Fill-3" fill="#E93831" points="235.919726 415 285 470 114 470"></polygon>
                    <polygon id="Fill-5" fill="#40BDA9" points="476 0 429.112533 51 363 0"></polygon>
                    <polygon id="Fill-7" fill="#40BDA9" points="0 332 115 470 0 470"></polygon>
                    <polygon id="Fill-9" fill="#F26F26" points="726 232.99245 688.446319 415 608 136"></polygon>
                    <polygon id="Fill-11" fill="#E93831" points="0 0 172 271.852992 114.596319 470"></polygon>
                    <polygon id="Fill-13" fill="#EA4A48" points="726 0 688.486441 28 476 0"></polygon>
                    <polygon id="Fill-15" fill="#EA4A48" points="445 346.406424 353.54029 430 237 332"></polygon>
                    <polygon id="Fill-17" fill="#EA4A48" points="0 0 115 470 0 332.144186"></polygon>
                    <polygon id="Fill-19" fill="#EA4A48" points="726 233 726 470 688 415.386563"></polygon>
                    <polygon id="Fill-21" fill="#40BDA9" points="726 0 726 233 688 27.7840145"></polygon>
                    <polygon id="Fill-23" fill="#584D89" points="688.446319 28 726 233 608 135.978708"></polygon>
                    <polygon id="Fill-25" fill="#E93831" points="688.452701 415 726 470 353 429.456102"></polygon>
                    <polygon id="Fill-27" fill="#E93831" points="688 28 607.754531 136 429 50.9428492"></polygon>
                    <polygon id="Fill-29" fill="#EA4A48" points="607.754531 135.011574 688 414 429 50"></polygon>
                    <polygon id="Fill-31" fill="#E93831" points="429 50 688 414 444.615822 345.208333"></polygon>
                    <polygon id="Fill-33" fill="#F26F26" points="688 27.9228029 429 51 475.817379 0"></polygon>
                    <polygon id="Fill-35" fill="#F26F26" points="688 414.695873 353 429 444.377326 346"></polygon>
                    <polygon id="Fill-37" fill="#584D89" points="429.352623 50 445 346 172 271.290928"></polygon>
                    <polygon id="Fill-39" fill="#E93831" points="445 346 236.971287 331.581583 172 271"></polygon>
                    <polygon id="Fill-41" fill="#EA4A48" points="429 50 172 271 189.221649 87.3054268"></polygon>
                    <polygon id="Fill-43" fill="#F26F26" points="429 50.715948 189.090162 88 0 0"></polygon>
                    <polygon id="Fill-45" fill="#E93831" points="429 51 0 0 362.90731 0"></polygon>
                    <polygon id="Fill-47" fill="#E93831" points="353 429.456102 286.028453 470 237 415"></polygon>
                    <polygon id="Fill-49" fill="#40BDA9" points="353 430 237 415.593576 237 332"></polygon>
                    <polygon id="Fill-51" fill="#F26F26" points="236 332 236 415.349224 114 470"></polygon>
                    <polygon id="Fill-53" fill="#584D89" points="236 331.246463 114 469 171.227889 271"></polygon>
                    <polygon id="Fill-55" fill="#40BDA9" points="189 88.1330672 171.777123 272 0 0"></polygon>
                </g>
            </g>
        </g>
    </g>
</svg>